# xmcd
#
# Track frame offsets:
#	180
#	18316
#	35166
#	52919
#	67410
#	80739
#	101691
#	119549
#	133268
#	145179
#	162876
#	181590
#	197523
#	212085
#	226468
#	238611
#
# Disc length: 3407 seconds
#
# Revision: 1
# Processed by: cddbd v1.5.2PL0 Copyright (c) Steve Scherf et al.
# Submitted via: audiograbber 1.83.01
#
DISCID=e70d4d10
DTITLE=Faith Hill - Just Tracks
DYEAR=1900
DGENRE=Country Karaoke
TTITLE0=Breathe
TTITLE1=But I Will
TTITLE2=I Can't Do That Anymore
TTITLE3=It Matters To Me
TTITLE4=Just About Now
TTITLE5=Just To Hear You Say You Love Me
TTITLE6=Let Me Let Go
TTITLE7=Lets Go To Vegas 
TTITLE8=Lifes Too Short
TTITLE9=Piece Of My Heart
TTITLE10=The Secret Of Life
TTITLE11=Someone Elses Dream
TTITLE12=Take Me As I Am
TTITLE13=This Kiss
TTITLE14=Wild One
TTITLE15=You Cant Lose Me
EXTD=
EXTT0=
EXTT1=
EXTT2=
EXTT3=
EXTT4=
EXTT5=
EXTT6=
EXTT7=
EXTT8=
EXTT9=
EXTT10=
EXTT11=
EXTT12=
EXTT13=
EXTT14=
EXTT15=
PLAYORDER=
